<svg width="20" height="20" viewBox="0 0 20 20" fill="none" xmlns="http://www.w3.org/2000/svg">
<path d="M7.50033 18.3333H12.5003C16.667 18.3333 18.3337 16.6667 18.3337 12.5V7.5C18.3337 3.33334 16.667 1.66667 12.5003 1.66667H7.50033C3.33366 1.66667 1.66699 3.33334 1.66699 7.5V12.5C1.66699 16.6667 3.33366 18.3333 7.50033 18.3333Z" stroke="#1E1E1E" stroke-width="1.5" stroke-linecap="round" stroke-linejoin="round"/>
<path d="M7.49967 8.33333C8.42015 8.33333 9.16634 7.58714 9.16634 6.66667C9.16634 5.74619 8.42015 5 7.49967 5C6.5792 5 5.83301 5.74619 5.83301 6.66667C5.83301 7.58714 6.5792 8.33333 7.49967 8.33333Z" stroke="#1E1E1E" stroke-width="1.5" stroke-linecap="round" stroke-linejoin="round"/>
<path d="M2.22461 15.7917L6.33294 13.0333C6.99128 12.5917 7.94128 12.6417 8.53294 13.15L8.80794 13.3917C9.45794 13.95 10.5079 13.95 11.1579 13.3917L14.6246 10.4167C15.2746 9.85833 16.3246 9.85833 16.9746 10.4167L18.3329 11.5833" stroke="#1E1E1E" stroke-width="1.5" stroke-linecap="round" stroke-linejoin="round"/>
</svg>
