<svg width="20" height="20" viewBox="0 0 20 20" fill="none" xmlns="http://www.w3.org/2000/svg">
<path d="M17.5 6.1275V13.8725C17.5 13.9618 17.4762 14.0494 17.4309 14.1264C17.3856 14.2033 17.3206 14.2667 17.2425 14.31L10.2425 18.1983C10.1683 18.2395 10.0848 18.2611 10 18.2611C9.91515 18.2611 9.8317 18.2395 9.7575 18.1983L2.7575 14.31C2.67943 14.2667 2.61438 14.2033 2.5691 14.1264C2.52381 14.0494 2.49996 13.9618 2.5 13.8725V6.1275C2.50011 6.03837 2.52403 5.95089 2.56931 5.87411C2.61458 5.79734 2.67955 5.73406 2.7575 5.69083L9.7575 1.80166C9.8317 1.76051 9.91515 1.73892 10 1.73892C10.0848 1.73892 10.1683 1.76051 10.2425 1.80166L17.2425 5.69083C17.3204 5.73406 17.3854 5.79734 17.4307 5.87411C17.476 5.95089 17.4999 6.03837 17.5 6.1275Z" stroke="#1E1E1E" stroke-width="1.5" stroke-linecap="round" stroke-linejoin="round"/>
<path d="M17.0837 13.935L10.2428 10.135C10.1686 10.0938 10.0852 10.0723 10.0003 10.0723C9.91548 10.0723 9.83203 10.0938 9.75783 10.135L2.91699 13.935M2.94033 6.07833L9.75699 9.865C9.83129 9.9063 9.9149 9.92797 9.99991 9.92797C10.0849 9.92797 10.1685 9.9063 10.2428 9.865L17.0837 6.065M10.0003 17.5V2.5" stroke="#1E1E1E" stroke-width="1.5" stroke-linecap="round" stroke-linejoin="round"/>
</svg>
