<svg width="16" height="17" viewBox="0 0 16 17" fill="none" xmlns="http://www.w3.org/2000/svg">
<path d="M13.4735 5.71334L8.34014 8.68667C8.13348 8.80667 7.87348 8.80667 7.66014 8.68667L2.52681 5.71334C2.16014 5.5 2.06681 5 2.34681 4.68667C2.54014 4.46667 2.76014 4.28667 2.99348 4.16L6.60681 2.16C7.38014 1.72667 8.63348 1.72667 9.40681 2.16L13.0201 4.16C13.2535 4.28667 13.4735 4.47334 13.6668 4.68667C13.9335 5 13.8401 5.5 13.4735 5.71334Z" fill="#4A4A4A"/>
<path d="M7.61966 9.92667V14.4733C7.61966 14.98 7.10633 15.3133 6.65299 15.0933C5.27966 14.42 2.96633 13.16 2.96633 13.16C2.15299 12.7 1.48633 11.54 1.48633 10.5867V7.14667C1.48633 6.62 2.03966 6.28667 2.49299 6.54667L7.28633 9.32667C7.48633 9.45333 7.61966 9.68 7.61966 9.92667Z" fill="#4A4A4A"/>
<path d="M8.38086 9.92667V14.4733C8.38086 14.98 8.89419 15.3133 9.34753 15.0933C10.7209 14.42 13.0342 13.16 13.0342 13.16C13.8475 12.7 14.5142 11.54 14.5142 10.5867V7.14667C14.5142 6.62 13.9609 6.28667 13.5075 6.54667L8.71419 9.32667C8.51419 9.45333 8.38086 9.68 8.38086 9.92667Z" fill="#4A4A4A"/>
</svg>
