<svg width="20" height="20" viewBox="0 0 20 20" fill="none" xmlns="http://www.w3.org/2000/svg">
<path d="M16.6667 18.3333H7C4.51667 18.3333 2.5 16.3167 2.5 13.8333V4.16667M14.0233 11.5233L9.31 6.81M14.0233 6.81L9.31 11.5233M7 2.5H16.3333C16.596 2.5 16.856 2.55173 17.0987 2.65224C17.3414 2.75275 17.5618 2.90007 17.7475 3.08579C17.9333 3.2715 18.0806 3.49198 18.1811 3.73463C18.2816 3.97728 18.3333 4.23736 18.3333 4.5V13.8333C18.3333 14.3638 18.1226 14.8725 17.7475 15.2475C17.3725 15.6226 16.8638 15.8333 16.3333 15.8333H7C6.73736 15.8333 6.47728 15.7816 6.23463 15.6811C5.99198 15.5806 5.7715 15.4333 5.58579 15.2475C5.21071 14.8725 5 14.3638 5 13.8333V4.5C5 4.23736 5.05173 3.97728 5.15224 3.73463C5.25275 3.49198 5.40007 3.2715 5.58579 3.08579C5.96086 2.71071 6.46957 2.5 7 2.5Z" stroke="black" stroke-miterlimit="10" stroke-linecap="round" stroke-linejoin="round"/>
</svg>
