<svg width="20" height="20" viewBox="0 0 20 20" fill="none" xmlns="http://www.w3.org/2000/svg">
<path d="M9.99935 12.9808L7.05018 10.0325L7.64018 9.4325L9.58268 11.375V4.16667H10.416V11.375L12.3577 9.43333L12.9485 10.0325L9.99935 12.9808ZM5.51268 15.8333C5.12879 15.8333 4.80852 15.705 4.55185 15.4483C4.29518 15.1917 4.16657 14.8711 4.16602 14.4867V12.4675H4.99935V14.4867C4.99935 14.615 5.05268 14.7328 5.15935 14.84C5.26602 14.9472 5.38352 15.0006 5.51185 15H14.4868C14.6146 15 14.7321 14.9467 14.8393 14.84C14.9466 14.7333 14.9999 14.6156 14.9993 14.4867V12.4675H15.8327V14.4867C15.8327 14.8706 15.7043 15.1908 15.4477 15.4475C15.191 15.7042 14.8705 15.8328 14.486 15.8333H5.51268Z" fill="black"/>
</svg>
