<svg width="20" height="20" viewBox="0 0 20 20" fill="none" xmlns="http://www.w3.org/2000/svg">
<path d="M13.333 7.18V4.68H6.6663V7.18H5.83297V3.84667H14.1663V7.18H13.333ZM14.6788 10.0967C14.9149 10.0967 15.113 10.0167 15.273 9.85667C15.433 9.69667 15.5127 9.49889 15.5121 9.26333C15.5116 9.02778 15.4319 8.82972 15.273 8.66917C15.1141 8.50861 14.916 8.42861 14.6788 8.42917C14.4416 8.42972 14.2438 8.50972 14.0855 8.66917C13.9271 8.82861 13.8471 9.02667 13.8455 9.26333C13.8438 9.5 13.9238 9.69778 14.0855 9.85667C14.2471 10.0156 14.4444 10.0956 14.6788 10.0967ZM13.333 15.8333V12.0517H6.6663V15.8333H13.333ZM14.1663 16.6667H5.83297V13.3333H2.98047V8.84667C2.98047 8.37445 3.14075 7.97861 3.4613 7.65917C3.78186 7.33972 4.17714 7.17972 4.64714 7.17917H15.3521C15.8244 7.17917 16.2202 7.33917 16.5396 7.65917C16.8591 7.97917 17.0188 8.37472 17.0188 8.84583V13.3333H14.1663V16.6667ZM16.1855 12.5V8.84667C16.1855 8.61056 16.1057 8.4125 15.9463 8.2525C15.7869 8.0925 15.5888 8.0125 15.3521 8.0125H4.64714C4.41102 8.0125 4.21325 8.0925 4.0538 8.2525C3.89436 8.4125 3.81436 8.61056 3.8138 8.84667V12.5H5.83297V11.2183H14.1663V12.5H16.1855Z" fill="black"/>
</svg>
