<svg width="20" height="20" viewBox="0 0 20 20" fill="none" xmlns="http://www.w3.org/2000/svg">
<path d="M14.1667 13.3333V15C14.1667 15.442 13.9911 15.866 13.6785 16.1785C13.366 16.4911 12.942 16.6667 12.5 16.6667H4.16667C3.72464 16.6667 3.30072 16.4911 2.98816 16.1785C2.67559 15.866 2.5 15.442 2.5 15V9.16667C2.5 8.72464 2.67559 8.30072 2.98816 7.98816C3.30072 7.6756 3.72464 7.5 4.16667 7.5H5.83333M8.33333 4.16667H7.5C7.05797 4.16667 6.63405 4.34226 6.32149 4.65482C6.00893 4.96738 5.83333 5.39131 5.83333 5.83333V11.6667C5.83333 12.1087 6.00893 12.5326 6.32149 12.8452C6.63405 13.1577 7.05797 13.3333 7.5 13.3333H15.8333C16.2754 13.3333 16.6993 13.1577 17.0118 12.8452C17.3244 12.5326 17.5 12.1087 17.5 11.6667V5.83333C17.5 5.39131 17.3244 4.96738 17.0118 4.65482C16.6993 4.34226 16.2754 4.16667 15.8333 4.16667H15M14.1667 7.5L11.6667 10M11.6667 10L9.16667 7.5M11.6667 10V2.5" stroke="black" stroke-linecap="round" stroke-linejoin="round"/>
</svg>
